# xmcd
#
# Track frame offsets:
#	150
#	15817
#	33387
#	44312
#	56839
#	70072
#	89290
#	109420
#	122860
#	137630
#	150860
#	166995
#	180065
#	197105
#	210595
#	225630
#	239272
#	256265
#	270037
#	282802
#	303992
#	320740
#
# Disc length: 4502 seconds
#
# Revision: 1
# Processed by: cddbd v1.5.1PL0 Copyright (c) Steve Scherf et al.
# Submitted via: audiograbber 1.82.01
#
DISCID=1c119416
DTITLE=Os Serranos - Dose Dupla
DYEAR=1990
DGENRE=Gaúcho
TTITLE0=Abreo Fole Tio Bilia
TTITLE1=Outras Andanças
TTITLE2=Mademoiselle Cely
TTITLE3=Passa Fora Jaguarada
TTITLE4=Galpão
TTITLE5=América Coração
TTITLE6=Canto Alegretense
TTITLE7=Bugio da Fronteira
TTITLE8=O Ventana
TTITLE9=Prenda Minha
TTITLE10=El Choclo
TTITLE11=Vanerão da Noite Inteira
TTITLE12=Pelos
TTITLE13=Bugio Novo
TTITLE14=Campesino
TTITLE15=Talho de Tramontina
TTITLE16=Bugio do Chico
TTITLE17=Bailes do Meu Rincão
TTITLE18=Chacoaleando
TTITLE19=Poncho Molhado
TTITLE20=Rancho de Beira de Estrada
TTITLE21=Comandante Altaneiro
EXTD=
EXTT0=
EXTT1=
EXTT2=
EXTT3=
EXTT4=
EXTT5=
EXTT6=
EXTT7=
EXTT8=
EXTT9=
EXTT10=
EXTT11=
EXTT12=
EXTT13=
EXTT14=
EXTT15=
EXTT16=
EXTT17=
EXTT18=
EXTT19=
EXTT20=
EXTT21=
PLAYORDER=
